<svg xmlns="http://www.w3.org/2000/svg" version="1.0" viewBox="0 0 1024 1024"><path d="m417.7 9.6-14.2.9c-23.3 1.1-30.4 1.7-32.2 2.8-.7.4-.8 2.2-.2 5.2a52 52 0 0 1 .9 6.5c.3.8.9 4.2 1.4 8l2 12.5 2.1 14.5.8 5c.4 1.9.9 5.1 1.1 7 .6 4.5 1.5 10 2.1 12.6.4 1.6-21.5 24-107.9 110.2L165.2 303.1l.4 3.7.9 9.2a203.7 203.7 0 0 0 2 16l1 9 1 9 .9 9.3c.3 3.2.7 6.1.9 6.5.3.4.8 4.1 1.1 8.2l1 9.5c.3 1.1.5 2.6.5 3.2.1.7.5 1.3 1.1 1.3.5 0 4.9 2.4 9.8 5.3a293.2 293.2 0 0 0 15.4 9l50.9 29.9 4.6 2.6 3.2-6.6a106.7 106.7 0 0 1 30-37.2 382.7 382.7 0 0 1 16.7-13.8c.7-.6 1.7-1.2 2.2-1.2.6 0 1.2-.4 1.4-.9.2-.6 5-4.3 10.8-8.4a720 720 0 0 1 39-24.7 1025 1025 0 0 1 43.8-23.3l8-3.8 8.2-3.6a122.5 122.5 0 0 1 18.6-8l4.9-1.9 9.3-3.3c4.5-1.7 8.2-2.8 8.2-2.5 0 .4.7.1 1.5-.6s1.5-.9 1.5-.5c0 .9-4 6.6-5.6 8-.6.5-4.4 5.7-8.5 11.5-4 5.8-7.6 10.7-7.9 11l-4 6-4.3 6.5a346.2 346.2 0 0 0-17.2 28.5c-2.1 3.6-5.4 9.6-7.4 13.5-2 3.8-4 7.3-4.4 7.6-.5.3-.9 1.2-1.1 2a49 49 0 0 1-5.8 11.7c-.5.2-.8 1.1-.8 2.1a8 8 0 0 1-1.5 3.7c-.8 1-1.5 2.7-1.5 3.6 0 1-.4 1.8-1 1.8-.5 0-1 .5-1 1.1 0 .9-1.9 5.5-5 12.4a561.7 561.7 0 0 0-26.2 77.2c-4.1 16.2-4.8 18.9-5.2 22.6l-.6 3.2c-.3 0-3.4 15.6-4.5 22.5l-1 6a203 203 0 0 0-2 13.5l-.9 7.5c-1.4 12-2.1 19.6-3.2 36-.7 11.1-.6 51.1.1 62l1 15c.3 5.2 1.3 14.3 2 18 .2 1.2-.8 2.4-3 3.5a17.6 17.6 0 0 0-7.3 9.5 26.3 26.3 0 0 0-.1 13.4c3.6 11.2 5.2 11.8 32.9 11.8 12.3 0 22 .4 22 .9s-.7.9-1.6.9a312 312 0 0 0-38.9 19 358 358 0 0 0-36.5 25.1l-7 6a418.9 418.9 0 0 0-32 31.7l-4.6 5.7a92 92 0 0 0-5.5 6.9c-1.8 2.5-3.6 4.6-4.1 4.6-.5 0-.7.4-.3.9.3.5 0 1.3-.6 1.6-1.4.9-14.8 21.2-16 24.2-.5 1.3-1.4 2.3-2 2.3-.7 0-.9.3-.6.7.4.3.3 1.1-.2 1.7a181.2 181.2 0 0 0-11.5 22.9c.2.2-.2 1-1.1 1.7-.8.7-1.5 1.9-1.5 2.6 0 .7-.9 3.3-1.9 5.6a249 249 0 0 0-12.8 39l-1.6 6.6-7 .4c-3.8.2-7.4 0-8-.4-.6-.4-1.6-.4-2.1-.1-.6.4-2.9.8-5.1.9-4.9.2-10.8 3-15.3 7.3-4.9 4.7-6.7 9.6-6.6 18.1.1 9.5 5.4 16.8 15.4 21.3 4.5 2.1 5.3 2.1 329.5 2.1h325.1l5.7-2.3c3.1-1.3 5.7-2.7 5.7-3.1 0-.5.8-1.1 1.8-1.4 2.1-.7 6.4-7.8 7.8-13.1 3.9-14.8-10.4-30.1-27.5-29.5l-10.7.1c-6.7-.1-6.2.4-8.1-8.6-.7-3.6-4.4-15.9-6-20-.8-2.2-1.7-5-1.9-6.2-.6-3.4-9.6-23.9-15.3-34.8a294.3 294.3 0 0 0-28-44.1l-5.6-7a390.9 390.9 0 0 0-42-41.9c-1.6-1.4-5-4-7.5-5.7-3.9-2.7-6.1-4.3-11.5-8.6-8-6.3-41.9-24.8-58.4-32l-4.4-1.9 23.7-.1c21-.1 24.1-.3 26.9-1.9 7-4.1 9.6-16.7 5.3-25.4-3.2-6.2-7.2-8.3-16.5-8.3-4.2-.1-7.5-.3-7.4-.6l.8-3.3c.6-2.3 8-8.7 10.2-8.7a238 238 0 0 0 74.9-90.8 417 417 0 0 0 8.4-17.3c0-.4.8-2.4 1.7-4.5l1.9-4.7c.1-.4.2-.8.4-1l.5-1.7 3.5-10a268 268 0 0 0 4.5-13.1c.1-.9 1.1-4.3 2-7.5.9-3.3 1.9-6.9 2.1-8.1.2-1.2.8-3.3 1.4-4.7.5-1.3.6-2.6.4-2.9-.3-.3-.1-1.4.5-2.5a23 23 0 0 0 1.6-5.4l.9-5.8 1.1-6.5c.3-2.2.8-4.7 1.1-5.6l.9-4.5 1-7.9a618.9 618.9 0 0 0 3-25 842 842 0 0 0 .1-113.5c-.4-2.5-.9-7.2-1.1-10.5l-.9-9-1-10a451.4 451.4 0 0 0-3.2-23.4c-.3-3.2-.8-6.2-1.8-12.1l-1-6c-.7-4.4-4.4-22.4-5.1-24.2-.2-.7-.7-2.4-.9-3.8a195.7 195.7 0 0 0-4.1-16 667.5 667.5 0 0 0-13.5-38.6 565.7 565.7 0 0 0-15-30.9 224.4 224.4 0 0 0-16-25.7c0-1.1-6.2-9.6-9.7-13.3-.7-.8-1.3-1.7-1.3-2 0-2.4-27.2-30.6-39-40.5l-7-6a48 48 0 0 0-4-3 48 48 0 0 1-4-3c-.3-.4-3.4-2.6-7-5a39 39 0 0 1-6.8-5.2 64.3 64.3 0 0 1-10-5.7 337.8 337.8 0 0 0-72.7-32.8l-4-1.3-4.5-1.1c-6.4-1.8-6.8-1.9-12.7-3.3a212 212 0 0 0-18-4.1c-1.1-.2-2.9-.5-4-.9-1-.3-3.8-.8-6.3-1.1-2.5-.3-6.1-1-8-1.5l-9-1.5-9-1.1-9-.9-5.5-.5c0-.5-7.2-.9-24.5-1.5-27.6-1-28.1-1-28.3-.9z"/></svg>